<?xml version="1.0" encoding="UTF-8" standalone="no"?>
<!-- Created with Inkscape (http://www.inkscape.org/) -->

<svg
   xmlns:dc="http://purl.org/dc/elements/1.1/"
   xmlns:cc="http://creativecommons.org/ns#"
   xmlns:rdf="http://www.w3.org/1999/02/22-rdf-syntax-ns#"
   xmlns:svg="http://www.w3.org/2000/svg"
   xmlns="http://www.w3.org/2000/svg"
   xmlns:sodipodi="http://sodipodi.sourceforge.net/DTD/sodipodi-0.dtd"
   xmlns:inkscape="http://www.inkscape.org/namespaces/inkscape"
   width="210mm"
   height="297mm"
   viewBox="0 0 744.09448819 1052.3622047"
   id="svg2"
   version="1.1"
   inkscape:version="0.91 r13725"
   sodipodi:docname="jpmena.svg">
  <defs
     id="defs4" />
  <sodipodi:namedview
     id="base"
     pagecolor="#ffffff"
     bordercolor="#666666"
     borderopacity="1.0"
     inkscape:pageopacity="0.0"
     inkscape:pageshadow="2"
     inkscape:zoom="0.98994949"
     inkscape:cx="145.1903"
     inkscape:cy="722.03051"
     inkscape:document-units="px"
     inkscape:current-layer="layer1"
     showgrid="false"
     inkscape:window-width="1920"
     inkscape:window-height="1031"
     inkscape:window-x="0"
     inkscape:window-y="27"
     inkscape:window-maximized="1"
     inkscape:snap-grids="true" />
  <metadata
     id="metadata7">
    <rdf:RDF>
      <cc:Work
         rdf:about="">
        <dc:format>image/svg+xml</dc:format>
        <dc:type
           rdf:resource="http://purl.org/dc/dcmitype/StillImage" />
        <dc:title></dc:title>
      </cc:Work>
    </rdf:RDF>
  </metadata>
  <g
     inkscape:label="Calque 1"
     inkscape:groupmode="layer"
     id="layer1">
    <g
       id="g4494"
       transform="matrix(6.7179028,0.1566257,-9.1336224,8.3713758,320.17857,369.78324)"
       inkscape:transform-center-x="1183.2566"
       inkscape:transform-center-y="3284.9164"
       style="fill:#ddd91f;fill-opacity:1;image-rendering:optimizeQuality"
       inkscape:export-xdpi="90"
       inkscape:export-ydpi="90">
      <g
         id="g4444"
         style="fill:#ddd91f;fill-opacity:1">
        <g
           id="g4446"
           style="fill:#ddd91f;fill-opacity:1">
          <g
             id="g4448"
             style="fill:#ddd91f;fill-opacity:1">
            <path
               id="path4450"
               d="m 5.734,8.248 0,-0.631 C 5.382,7.377 5.049,7.092 4.742,6.754 3.853,7.613 3.002,8.157 2.906,8.218 L 2.825,8.268 2.335,7.485 2.415,7.434 C 2.425,7.427 3.291,6.878 4.166,6.021 3.363,4.85 3.054,3.67 3.042,3.619 L 3.019,3.529 3.914,3.299 3.936,3.39 C 3.938,3.4 4.193,4.344 4.813,5.316 5.426,4.571 5.783,3.853 5.874,3.176 l -3.759,0 0,-1.005 2.072,0 0,-0.559 0.966,0 0,0.558 2.072,0 0,1.006 -0.417,0 C 6.711,4.117 6.233,5.092 5.384,6.077 5.498,6.205 5.615,6.322 5.734,6.434 l 0,-0.065 0,-0.408 c 0,-0.336 0.272,-0.608 0.608,-0.608 l 2.705,0 0,-4.784 C 9.047,0.485 8.98,0.417 8.895,0.417 l -8.743,0 C 0.068,0.417 0,0.485 0,0.569 l 0,8.742 c 0,0.085 0.068,0.152 0.152,0.152 l 5.582,0 0,-1.215 0,0 z"
               style="fill:#ddd91f;fill-opacity:1"
               inkscape:connector-curvature="0" />
            <path
               id="path4452"
               d="m 10.728,8.515 -0.017,0 C 10.627,8.848 10.545,9.27 10.453,9.593 l -0.332,1.187 1.236,0 L 11.01,9.593 C 10.91,9.261 10.81,8.847 10.728,8.515 Z"
               style="fill:#ddd91f;fill-opacity:1"
               inkscape:connector-curvature="0" />
            <path
               id="path4454"
               d="m 15.152,5.841 -8.742,0 c -0.084,0 -0.152,0.068 -0.152,0.152 l 0,8.743 c 0,0.084 0.068,0.151 0.152,0.151 l 8.742,0 c 0.085,0 0.152,-0.067 0.152,-0.151 l 0,-8.743 c 0,-0.083 -0.067,-0.152 -0.152,-0.152 z m -3.18,7.319 -0.431,-1.436 -1.601,0 -0.399,1.436 -1.31,0 1.709,-5.59 1.658,0 1.733,5.59 -1.359,0 z"
               style="fill:#ddd91f;fill-opacity:1"
               inkscape:connector-curvature="0" />
            <polygon
               id="polygon4456"
               points="2.72,11.866 3.726,12.862 5.986,12.862 5.986,11.647 3.935,11.647 3.935,9.846 2.72,9.846 "
               style="fill:#ddd91f;fill-opacity:1" />
          </g>
        </g>
      </g>
      <g
         id="g4458"
         style="fill:#ddd91f;fill-opacity:1" />
      <g
         id="g4460"
         style="fill:#ddd91f;fill-opacity:1" />
      <g
         id="g4462"
         style="fill:#ddd91f;fill-opacity:1" />
      <g
         id="g4464"
         style="fill:#ddd91f;fill-opacity:1" />
      <g
         id="g4466"
         style="fill:#ddd91f;fill-opacity:1" />
      <g
         id="g4468"
         style="fill:#ddd91f;fill-opacity:1" />
      <g
         id="g4470"
         style="fill:#ddd91f;fill-opacity:1" />
      <g
         id="g4472"
         style="fill:#ddd91f;fill-opacity:1" />
      <g
         id="g4474"
         style="fill:#ddd91f;fill-opacity:1" />
      <g
         id="g4476"
         style="fill:#ddd91f;fill-opacity:1" />
      <g
         id="g4478"
         style="fill:#ddd91f;fill-opacity:1" />
      <g
         id="g4480"
         style="fill:#ddd91f;fill-opacity:1" />
      <g
         id="g4482"
         style="fill:#ddd91f;fill-opacity:1" />
      <g
         id="g4484"
         style="fill:#ddd91f;fill-opacity:1" />
      <g
         id="g4486"
         style="fill:#ddd91f;fill-opacity:1" />
    </g>
    <text
       xml:space="preserve"
       style="font-style:normal;font-weight:normal;font-size:46.88303757px;line-height:125%;font-family:sans-serif;letter-spacing:0px;word-spacing:0px;fill:#121ace;fill-opacity:1;stroke:none;stroke-width:1px;stroke-linecap:butt;stroke-linejoin:miter;stroke-opacity:1"
       x="357.66327"
       y="283.55875"
       id="text4167"
       sodipodi:linespacing="125%"
       transform="matrix(0.89484445,0.33755976,-0.30085326,1.0040226,0,0)"
       inkscape:export-xdpi="90"
       inkscape:export-ydpi="90"><tspan
         sodipodi:role="line"
         id="tspan4169"
         x="357.66327"
         y="283.55875">jpmena.eu</tspan></text>
  </g>
  <g
     inkscape:groupmode="layer"
     id="layer2"
     inkscape:label="titre" />
</svg>
